<svg width="30" height="30" viewBox="0 0 30 30" fill="none" xmlns="http://www.w3.org/2000/svg">
<rect width="30" height="30" fill="#BEA67C"/>
<path d="M11.2668 9.86665C11.1474 9.86665 11.0279 9.91213 10.9369 10.0034L10.0035 10.9367C9.82108 11.1192 9.82108 11.4146 10.0035 11.5966L13.4069 15L10.0035 18.4034C9.82108 18.5858 9.82108 18.8813 10.0035 19.0633L10.9369 19.9966C11.1193 20.1791 11.4148 20.1791 11.5968 19.9966L15.0002 16.5932L18.4035 19.9966C18.5855 20.1791 18.8814 20.1791 19.0634 19.9966L19.9968 19.0633C20.1792 18.8808 20.1792 18.5854 19.9968 18.4034L16.5934 15L19.9968 11.5966C20.1792 11.4146 20.1792 11.1187 19.9968 10.9367L19.0634 10.0034C18.881 9.8209 18.5855 9.8209 18.4035 10.0034L15.0002 13.4068L11.5968 10.0034C11.5055 9.91213 11.3862 9.86665 11.2668 9.86665Z" fill="white"/>
</svg>
